<?xml version="1.0"?>
<svg xmlns="http://www.w3.org/2000/svg" id="outline" viewBox="0 0 512 512" width="512" height="512"><path d="M416,200V40a24.02718,24.02718,0,0,0-24-24H120A24.02718,24.02718,0,0,0,96,40V200a24.02718,24.02718,0,0,0,24,24h88v72a8.00008,8.00008,0,0,0,8,8h80a8.00008,8.00008,0,0,0,8-8V224h88A24.02718,24.02718,0,0,0,416,200ZM120,32H392a8.00917,8.00917,0,0,1,8,8V64H112V40A8.00917,8.00917,0,0,1,120,32Zm-8,168V80H400V200a8.00917,8.00917,0,0,1-8,8H120A8.00917,8.00917,0,0,1,112,200Zm112,88V272h64v16Zm64-32H224V224h64Z"/><circle cx="128" cy="48" r="8"/><circle cx="152" cy="48" r="8"/><circle cx="176" cy="48" r="8"/><rect x="136" y="104" width="16" height="16"/><rect x="176" y="104" width="40" height="16"/><rect x="136" y="136" width="16" height="16"/><rect x="264" y="136" width="32" height="16"/><rect x="176" y="136" width="72" height="16"/><rect x="136" y="168" width="16" height="16"/><rect x="176" y="168" width="32" height="16"/><rect x="232" y="104" width="32" height="16"/><rect x="224" y="168" width="16" height="16"/><path d="M256,456V440a8.00008,8.00008,0,0,0-8-8h-3.71875l-8.875-13.3125A23.95241,23.95241,0,0,0,215.437,408H204.94434l-.1875-.375A28.11213,28.11213,0,0,0,179.47461,392a28.42178,28.42178,0,0,0-19.68744,8H123.31348a35.323,35.323,0,0,0-12.15467,2.14258L59.11328,337.085A24.20958,24.20958,0,0,0,16,352.209a26.63371,26.63371,0,0,0,7.852,18.957L68.686,416l-16,16H40a8.00008,8.00008,0,0,0-8,8v16a40.04552,40.04552,0,0,0,40,40H216A40.04552,40.04552,0,0,0,256,456Zm-76.52539-48a12.20015,12.20015,0,0,1,10.97168,6.78125l2.39844,4.79687A7.99967,7.99967,0,0,0,200,424h15.437a7.9857,7.9857,0,0,1,6.65674,3.5625L225.05206,432H158.12964l10.82641-18.04395A12.32871,12.32871,0,0,1,179.47461,408ZM32,352.209a8.20975,8.20975,0,0,1,14.61963-5.1289L95.35535,408H86.62744a24.352,24.352,0,0,0-3.10846.20508L35.16553,359.85156A10.735,10.735,0,0,1,32,352.209Zm48.97021,74.13477A7.94677,7.94677,0,0,1,86.62744,424H104a8.00121,8.00121,0,0,0,5.65674-2.34277A19.18715,19.18715,0,0,1,123.31348,416h25.757l-9.6001,16H75.314ZM48,456v-8H240v8a24.0275,24.0275,0,0,1-24,24H72A24.0275,24.0275,0,0,1,48,456Z"/><path d="M352,403.3501V384a8.00008,8.00008,0,0,0-8-8H304a8.00008,8.00008,0,0,0-8,8v19.3501A40.05181,40.05181,0,0,0,272,440v22.11133a36.74411,36.74411,0,0,0,20.42188,33.04394A7.99781,7.99781,0,0,0,296,496h56a7.99781,7.99781,0,0,0,3.57812-.84473A36.74411,36.74411,0,0,0,376,462.11133V440A40.05181,40.05181,0,0,0,352,403.3501ZM312,392h24v8H312Zm0,24h24a24.038,24.038,0,0,1,22.62378,16H289.37622A24.038,24.038,0,0,1,312,416Zm48,46.11133A20.81662,20.81662,0,0,1,349.95215,480h-51.9043A20.81662,20.81662,0,0,1,288,462.11133V448h72Z"/><path d="M488,312H476.24634l11.51489-46.05957a8.00087,8.00087,0,0,0-5.23144-9.53027l-24-8a7.99923,7.99923,0,0,0-10.3169,5.75781L434.60559,312H392a8.00008,8.00008,0,0,0-8,8v24l.001.01855c.00012.09083.01049.18165.01367.27271.00683.1897.01282.37964.03271.56567l.00147.02686,16,144A8.00054,8.00054,0,0,0,408,496h64a8.00054,8.00054,0,0,0,7.95117-7.11621l16-144,.00147-.02686c.01989-.186.02588-.376.03271-.56567.00318-.09106.01355-.18188.01367-.27271L496,344V320A8.00008,8.00008,0,0,0,488,312Zm-26.21924-45.64062,8.66113,2.88769L459.75366,312H451.042ZM400,328h80v8H400Zm75.38354,57.10571-7.77661,2.59253a27.94509,27.94509,0,0,1-10.63256,1.38941L466.24634,352H479.062ZM400.938,352h24.25549l-7.151,30.39209a43.90036,43.90036,0,0,0-13.18359,4.89526Zm40.69177,0h8.1239L441.694,384.23877a43.83382,43.83382,0,0,0-7.18958-1.95508Zm23.21008,128H415.16016l-8.32666-74.94092,4.23388-2.82275a28.031,28.031,0,0,1,28.02735-1.74512,43.684,43.684,0,0,0,33.57129,2.38672l.77148-.25732Z"/><path d="M88,360H280V344H268.94434l-13.78907-27.57812A7.99967,7.99967,0,0,0,248,312H120a7.99967,7.99967,0,0,0-7.15527,4.42188L99.05566,344H88Zm104-16H176V328h16Zm16-16h16v16H208Zm-48,16H144V328h16Zm91.05566,0H240V328h3.05566ZM124.94434,328H128v16H116.94434Z"/><path d="M360,360a8.00008,8.00008,0,0,0,8-8V336a8.00076,8.00076,0,0,0-2.34326-5.65723l-16-16A8.00035,8.00035,0,0,0,344,312H312a8.00035,8.00035,0,0,0-5.65674,2.34277l-16,16A8.00076,8.00076,0,0,0,288,336v16a8.00008,8.00008,0,0,0,8,8Zm-56-20.68652L315.314,328H340.686L352,339.31348V344H304Z"/></svg>
