<?xml version="1.0"?>
<svg xmlns="http://www.w3.org/2000/svg" xmlns:xlink="http://www.w3.org/1999/xlink" xmlns:svgjs="http://svgjs.com/svgjs" version="1.1" width="512" height="512" x="0" y="0" viewBox="0 0 480 480" style="enable-background:new 0 0 512 512" xml:space="preserve" class=""><g><path xmlns="http://www.w3.org/2000/svg" d="m72 24c.003906-4.414062 3.585938-7.996094 8-8h320c4.414062.003906 7.996094 3.585938 8 8v112h16v-112c-.015625-13.25-10.75-23.984375-24-24h-320c-13.25.015625-23.984375 10.75-24 24v240h-40c-8.832031.007812-15.9921875 7.167969-16 16v16c.015625 13.25 10.75 23.984375 24 24h136v-16h-136c-4.414062-.003906-7.996094-3.585938-8-8v-16h144v-16h-88zm0 0" fill="#ffffff" data-original="#000000" style="" class=""/><path xmlns="http://www.w3.org/2000/svg" d="m464 264h-40v16h40v16c-.003906 4.414062-3.585938 7.996094-8 8h-256c-4.414062-.003906-7.996094-3.585938-8-8v-16h40v-16h-40c-8.832031.007812-15.992188 7.167969-16 16v16c.015625 13.25 10.75 23.984375 24 24h256c13.25-.015625 23.984375-10.75 24-24v-16c-.007812-8.832031-7.167969-15.992188-16-16zm0 0" fill="#ffffff" data-original="#000000" style="" class=""/><path xmlns="http://www.w3.org/2000/svg" d="m408 184v-16c-.007812-8.832031-7.167969-15.992188-16-16h-128c-8.832031.007812-15.992188 7.167969-16 16v72c.027344 22.082031 17.917969 39.972656 40 40h80c19-.027344 35.367188-13.390625 39.191406-32h8.808594c17.671875 0 32-14.328125 32-32s-14.328125-32-32-32zm-16 56c-.015625 13.25-10.75 23.984375-24 24h-80c-13.25-.015625-23.984375-10.75-24-24v-72h128zm40-24c-.007812 8.832031-7.167969 15.992188-16 16h-8v-32h8c8.832031.007812 15.992188 7.167969 16 16zm0 0" fill="#ffffff" data-original="#000000" style="" class=""/></g></svg>
